<svg version="1.2" baseProfile="tiny-ps"
     xmlns="http://www.w3.org/2000/svg"
     viewBox="0 0 1031 1024">
<title>DataIntelligency</title>
<path fill="#F2F3ED" opacity="1.000000" stroke="none" 
	d="
M551.000000,1025.000000 
	C367.355560,1025.000000 184.211151,1025.000000 1.033359,1025.000000 
	C1.033359,683.730347 1.033359,342.460693 1.033359,1.095523 
	C344.561218,1.095523 688.122437,1.095523 1031.841797,1.095523 
	C1031.841797,342.333282 1031.841797,683.666626 1031.841797,1025.000000 
	C871.793762,1025.000000 711.646912,1025.000000 551.000000,1025.000000 
M677.759766,158.699265 
	C631.497986,136.813461 582.774902,124.475739 531.620911,124.248306 
	C404.631287,123.683701 277.637878,123.978134 150.645996,123.942856 
	C149.541794,123.942551 148.437546,124.152924 147.427750,124.255356 
	C147.427750,383.644684 147.427750,642.691162 147.427750,901.852966 
	C148.953491,901.928650 150.104523,902.036011 151.255554,902.035889 
	C274.581268,902.019836 397.908905,902.411682 521.231995,901.832336 
	C610.213928,901.414307 688.999939,871.563110 757.163269,814.725159 
	C819.131042,763.053406 859.762634,697.285095 880.977478,619.594238 
	C897.812866,557.941589 899.289429,495.673309 887.014404,432.999908 
	C873.396423,363.470184 843.589172,301.838501 796.725342,248.670929 
	C763.385620,210.846603 723.795532,181.076523 677.759766,158.699265 
M997.793274,970.565979 
	C1001.454651,968.160583 998.243530,967.659668 996.700867,967.093750 
	C987.380676,963.675110 981.063538,957.380493 977.825928,947.968872 
	C977.493774,947.003479 976.676880,946.204773 975.467102,944.414368 
	C971.850464,957.168762 963.860535,964.698547 952.010803,969.015564 
	C963.988342,973.211304 971.792664,981.090576 976.002930,993.001465 
	C980.157471,982.329468 986.240906,974.253784 997.793274,970.565979 
z"/>
<path fill="#0E5041" opacity="1.000000" stroke="none" 
	d="
M678.102905,158.848541 
	C723.795532,181.076523 763.385620,210.846603 796.725342,248.670929 
	C843.589172,301.838501 873.396423,363.470184 887.014404,432.999908 
	C899.289429,495.673309 897.812866,557.941589 880.977478,619.594238 
	C859.762634,697.285095 819.131042,763.053406 757.163269,814.725159 
	C688.999939,871.563110 610.213928,901.414307 521.231995,901.832336 
	C397.908905,902.411682 274.581268,902.019836 151.255554,902.035889 
	C150.104523,902.036011 148.953491,901.928650 147.427750,901.852966 
	C147.427750,642.691162 147.427750,383.644684 147.427750,124.255356 
	C148.437546,124.152924 149.541794,123.942551 150.645996,123.942856 
	C277.637878,123.978134 404.631287,123.683701 531.620911,124.248306 
	C582.774902,124.475739 631.497986,136.813461 678.102905,158.848541 
M477.153564,367.000000 
	C475.102020,367.665985 473.050446,368.331970 470.124207,369.001312 
	C468.083221,369.000854 466.042206,369.000427 463.915039,368.415985 
	C463.594788,368.104004 463.274506,367.792053 462.954224,367.480072 
	C462.635742,367.986511 462.317261,368.492950 461.332947,369.001953 
	C460.889038,369.000885 460.445129,368.999847 459.867218,368.302582 
	C457.389252,366.675201 454.784180,363.791229 452.249084,369.001617 
	C451.500610,369.001892 450.752136,369.002167 449.890991,368.351807 
	C449.208313,367.981171 448.525635,367.610535 447.842957,367.239929 
	C447.706665,367.630035 447.570374,368.020142 447.434082,368.410248 
	C448.290192,368.608063 449.146301,368.805878 450.007477,369.572540 
	C450.007202,369.951752 450.006927,370.330933 449.132477,370.900360 
	C431.912567,370.973816 414.692688,371.047241 396.745392,371.488464 
	C396.887756,374.655853 397.030121,377.823212 397.449158,381.722046 
	C397.357544,382.486450 397.265900,383.250824 396.581604,384.414001 
	C396.387268,390.119965 396.168793,395.825256 396.003662,401.532074 
	C395.654358,413.602844 395.138580,425.673309 395.069916,437.746063 
	C395.025848,445.495209 395.657074,453.248138 395.237244,460.897217 
	C392.771667,460.402649 390.013275,459.027679 387.941345,459.716736 
	C386.510986,460.192413 384.858673,463.993683 385.444153,465.447449 
	C386.065735,466.990753 389.221130,467.501068 391.247894,468.506989 
	C391.495941,468.630096 391.607391,469.028381 392.158691,469.882568 
	C390.158051,472.348572 387.837982,474.868805 385.945374,477.677063 
	C384.920532,479.197754 384.624695,481.209686 384.049744,483.590729 
	C384.366486,484.060486 384.683258,484.530243 385.000000,485.856934 
	C385.000000,487.571289 385.000000,489.285645 384.284180,491.089355 
	C383.187225,492.404480 381.884796,493.599701 381.033539,495.058228 
	C378.867004,498.770386 377.754486,503.683044 374.653015,506.124329 
	C370.217621,509.615479 369.411774,513.273376 369.743225,518.304382 
	C369.946564,521.390808 368.919067,524.558289 368.253754,528.945862 
	C363.215179,524.213745 359.013367,520.464417 355.093140,516.440735 
	C354.167297,515.490479 353.658691,513.538025 353.861755,512.181946 
	C355.005524,504.544128 353.070343,497.294128 350.783508,490.269379 
	C348.861664,484.365784 345.031281,479.790253 336.379364,480.641083 
	C334.297089,492.250061 332.083466,504.203583 330.033356,516.185059 
	C329.009277,522.170288 328.019653,528.185364 327.532227,534.228638 
	C327.278046,537.379578 329.390656,541.161987 328.277710,543.721375 
	C324.778931,551.767273 328.881561,558.593628 331.415497,565.197021 
	C334.592651,573.476562 334.771545,581.112854 332.142944,589.319580 
	C330.955444,593.027100 330.281738,597.008911 330.091797,600.901245 
	C329.782501,607.238281 330.984100,608.650818 337.422546,610.002258 
	C342.101440,610.984497 347.163513,610.686646 351.567261,612.294617 
	C356.918488,614.248535 361.687958,612.861328 366.527069,611.557373 
	C371.084808,610.329285 372.530945,604.958984 368.867249,602.837219 
	C364.809845,600.487427 364.229004,597.086182 364.046936,593.274841 
	C363.896606,590.129028 362.735046,588.416077 359.445312,587.875183 
	C358.156036,587.663208 356.721283,586.331055 355.983765,585.123718 
	C353.181366,580.535950 350.811249,575.680542 347.943542,571.137329 
	C345.420990,567.140991 345.388733,560.677612 347.762390,556.737183 
	C352.122192,549.499451 360.178162,548.502930 366.811310,545.221558 
	C369.065430,544.106506 372.773224,543.909790 374.892242,545.034729 
	C377.775696,546.565552 379.772552,549.766418 381.637604,551.715881 
	C380.445312,554.916382 379.411987,558.252014 377.947968,561.386414 
	C377.200073,562.987549 375.498108,565.553345 374.537750,565.421570 
	C366.973145,564.383545 371.550323,568.170288 372.567474,570.275024 
	C371.231781,571.352844 370.111298,572.256958 368.405701,573.633179 
	C378.444000,580.528809 381.236176,589.634277 377.251740,600.091736 
	C383.429413,604.876221 386.157959,611.165527 386.743256,617.728516 
	C387.410187,625.206665 386.243256,632.839172 386.061523,640.409119 
	C386.019958,642.139648 386.414673,644.072021 387.235870,645.566956 
	C387.819977,646.630371 389.550415,647.798950 390.594604,647.654907 
	C391.519684,647.527222 392.226288,645.668396 392.989014,644.546448 
	C394.009735,643.044800 394.991547,641.516724 395.996429,640.900757 
	C396.026459,643.009277 396.056519,645.117859 395.869171,647.859985 
	C390.632538,653.260315 385.395905,658.660706 379.632660,664.318909 
	C379.406738,664.840698 379.180817,665.362427 378.744934,666.364258 
	C378.464630,666.563416 378.184326,666.762573 377.162872,666.986145 
	C376.114166,668.338806 375.065430,669.691528 373.806793,671.574341 
	C373.239197,672.062866 372.671600,672.551392 371.640442,673.186890 
	C371.349945,673.356384 371.136810,673.595032 370.413055,674.238342 
	C359.786224,685.564392 349.278992,697.005493 338.510468,708.195190 
	C304.654083,743.375854 270.697937,778.460510 236.787918,813.589600 
	C235.266998,815.165161 233.819824,816.811890 231.668915,819.154541 
	C234.142960,819.154541 235.302383,819.154724 236.461807,819.154480 
	C329.288635,819.137573 422.116241,819.304138 514.941589,818.925720 
	C530.695374,818.861511 546.642395,817.626953 562.155029,814.940491 
	C654.998291,798.861755 725.357117,749.837036 771.673279,667.830750 
	C806.134583,606.814575 816.951599,540.773438 808.218689,471.420715 
	C800.875916,413.108856 780.391968,360.092133 742.573425,314.727417 
	C684.553772,245.130630 610.943237,207.035645 519.216797,206.982178 
	C424.890076,206.927216 330.563263,206.973236 236.236496,206.975052 
	C234.623138,206.975082 233.009781,206.975052 231.277008,206.975052 
	C231.277008,371.515106 231.277008,535.528259 231.277008,700.252136 
	C232.965973,698.654541 234.181686,697.596008 235.294327,696.438416 
	C253.467529,677.530579 271.609894,658.593079 289.800720,639.702209 
	C296.042023,633.220764 302.341583,626.792908 308.725067,620.451843 
	C311.818359,617.379150 313.181610,614.056091 313.141083,609.502625 
	C312.928925,585.675110 313.095306,561.844299 313.566772,537.491333 
	C313.420166,535.989258 313.273560,534.487122 313.022308,532.136658 
	C313.057404,530.428650 313.092468,528.720703 313.610474,526.344360 
	C313.449066,519.892029 313.287659,513.439697 313.022491,506.247223 
	C313.057404,505.502350 313.092316,504.757446 313.593689,503.390747 
	C313.433472,500.590424 313.273285,497.790100 313.009613,494.164307 
	C313.044312,492.779968 313.079010,491.395599 313.596771,489.346527 
	C313.434967,484.227112 313.273163,479.107666 313.006409,473.139099 
	C313.038605,471.429413 313.070831,469.719727 313.567322,467.387787 
	C313.415100,464.588318 313.262878,461.788879 313.007721,458.087891 
	C313.041168,455.062073 313.074615,452.036224 313.532593,448.532654 
	C313.392303,447.351593 313.252014,446.170502 313.008728,444.096436 
	C313.045471,441.401764 313.082214,438.707123 313.566498,435.455719 
	C313.417358,433.632690 313.268219,431.809692 313.013794,429.056305 
	C313.049927,419.375183 313.086060,409.694061 313.529541,399.596039 
	C313.393707,398.726318 313.257843,397.856628 313.016907,396.078217 
	C313.052460,392.725006 313.088013,389.371796 313.407166,385.819946 
	C313.312592,385.540497 313.218018,385.261047 313.018829,384.051819 
	C313.051331,352.713135 313.083832,321.374481 313.503937,289.993591 
	C313.503937,289.993591 313.893463,289.976044 314.843964,289.994812 
	C394.090759,289.997742 473.337555,290.000641 552.584351,290.003876 
	C554.082703,290.003937 555.592712,290.128235 557.077087,289.985168 
	C560.212341,289.682892 561.048706,291.164978 561.039246,294.096313 
	C560.962402,317.736908 560.958435,341.378021 561.049072,365.018555 
	C561.060852,368.077087 559.983521,369.106506 556.975037,369.046082 
	C549.652710,368.898987 542.325317,369.001617 534.803772,368.227692 
	C530.743530,366.568604 526.717651,365.432526 522.111694,369.003357 
	C519.741150,369.002258 517.370544,369.001129 514.799622,368.218811 
	C510.826233,367.815491 506.858429,367.272430 502.875244,367.112457 
	C501.943573,367.075073 500.959778,368.336243 499.250000,369.002411 
	C498.500000,369.000793 497.750000,368.999176 496.798248,368.215546 
	C495.310883,367.810394 493.833069,367.103180 492.334412,367.055908 
	C487.560455,366.905243 482.778717,367.000031 477.153564,367.000000 
M295.704163,731.160461 
	C302.108002,727.125244 308.407959,722.911011 314.950165,719.114258 
	C319.737396,716.335938 321.082275,711.739929 322.528076,707.031372 
	C322.827454,706.056213 323.137939,704.595886 323.836395,704.305969 
	C332.761292,700.600891 340.092194,694.756775 346.971832,688.093872 
	C352.155518,683.073486 354.843170,677.453613 353.492645,670.222595 
	C353.344086,669.427185 352.794952,668.714783 352.512665,667.934570 
	C351.653198,665.559021 351.840454,663.685547 354.791901,662.999207 
	C355.711029,662.785461 357.047668,662.433228 357.339783,661.769104 
	C359.331543,657.240479 361.669678,652.722900 362.594391,647.949646 
	C362.883728,646.455933 359.153381,644.197144 357.292236,642.260559 
	C356.954559,641.909180 356.853363,641.183777 356.481750,641.035828 
	C354.264648,640.152893 352.056671,639.034729 349.738922,638.665588 
	C346.057678,638.079285 342.220642,638.374512 338.583008,637.637695 
	C334.915009,636.894897 331.339813,634.219299 327.850494,634.435242 
	C323.308197,634.716370 318.066162,635.973206 314.624298,638.701355 
	C310.133118,642.261169 307.356903,647.902588 303.363251,652.203003 
	C300.980835,654.768494 300.600647,656.386780 302.647400,659.426392 
	C304.278839,661.849243 305.601532,665.331482 305.208313,668.078186 
	C304.518219,672.898560 306.467285,674.654968 310.580719,675.036316 
	C313.801361,675.334900 317.299652,674.522705 320.229034,675.516846 
	C322.848877,676.405945 324.471680,677.054504 326.865540,675.036926 
	C327.775604,674.269897 331.402130,674.857422 331.786407,675.720215 
	C332.609772,677.568909 332.307556,680.026611 331.975769,682.158569 
	C331.929352,682.456970 329.052307,682.622498 327.599274,682.313965 
	C325.903351,681.953979 324.332275,681.005798 322.499451,680.224304 
	C321.352814,683.956787 315.680603,684.917542 317.300751,690.065002 
	C317.399475,690.378601 315.431274,691.945740 314.852783,691.737976 
	C313.807434,691.362488 312.590118,690.200867 312.348846,689.158325 
	C312.015503,687.717773 312.519501,686.083496 312.556671,685.687012 
	C306.323944,684.719421 300.367279,684.524719 294.917694,682.762146 
	C288.239929,680.602478 288.284882,680.093506 285.226837,686.459045 
	C284.870636,687.200500 284.378723,687.883301 283.900604,688.558594 
	C280.725250,693.042969 281.083679,698.154419 284.412964,701.201782 
	C283.562103,704.214783 281.836700,707.139221 282.283966,709.681335 
	C282.690796,711.993896 285.458313,713.891113 287.798492,716.710205 
	C283.790924,716.906616 279.602997,717.788269 275.710022,717.070374 
	C273.007507,716.572021 271.039032,716.004211 269.090149,718.230957 
	C268.814636,718.545776 268.196808,718.560913 267.702545,718.726440 
	C266.701111,717.871033 265.738129,717.048523 264.445587,715.944458 
	C262.301331,719.628113 260.249390,722.123474 255.266357,721.681885 
	C250.785187,721.284729 249.369476,725.157532 251.504440,729.225403 
	C252.104416,730.368591 252.724228,731.659424 252.775375,732.905579 
	C253.011047,738.647461 258.737091,742.323486 264.087128,740.409180 
	C265.999817,739.724792 268.348480,740.181274 270.493378,740.255310 
	C271.618652,740.294128 272.937134,741.122986 273.820984,740.756775 
	C280.951630,737.802124 287.999603,734.647949 295.704163,731.160461 
M336.154968,447.024048 
	C336.434357,448.969147 337.014221,450.927063 336.931885,452.856720 
	C336.748871,457.144318 338.864807,457.822418 342.173492,456.362488 
	C344.959686,455.133087 347.413574,452.994934 350.277618,452.133789 
	C354.651428,450.818604 354.342407,448.420135 353.088684,444.961212 
	C351.256195,445.634186 349.803925,446.167511 347.703766,446.938782 
	C347.405731,444.921082 347.239166,443.358215 346.934265,441.822815 
	C346.360474,438.933319 344.293488,438.130188 342.227875,439.738159 
	C339.964813,441.499878 338.324219,444.061218 336.154968,447.024048 
M427.332642,368.829315 
	C430.315613,368.829315 433.298584,368.829315 436.281525,368.829315 
	C436.226166,368.114685 436.170776,367.400055 436.115387,366.685425 
	C432.979431,367.247955 429.843445,367.810486 427.332642,368.829315 
M444.351013,367.671356 
	C442.808868,367.512360 441.266724,367.353394 439.724579,367.194397 
	C439.719788,367.724091 439.715027,368.253815 439.710236,368.783508 
	C441.252655,368.647705 442.795044,368.511932 444.351013,367.671356 
M349.726288,691.520447 
	C350.476349,690.715454 351.226379,689.910400 351.976440,689.105408 
	C351.454987,688.793762 350.933533,688.482056 350.412079,688.170410 
	C350.033905,689.127502 349.655731,690.084656 349.726288,691.520447 
z"/>
<path fill="#F8F9F6" opacity="1.000000" stroke="none" 
	d="
M997.458862,970.703247 
	C986.240906,974.253784 980.157471,982.329468 976.002930,993.001465 
	C971.792664,981.090576 963.988342,973.211304 952.010803,969.015564 
	C963.860535,964.698547 971.850464,957.168762 975.467102,944.414368 
	C976.676880,946.204773 977.493774,947.003479 977.825928,947.968872 
	C981.063538,957.380493 987.380676,963.675110 996.700867,967.093750 
	C998.243530,967.659668 1001.454651,968.160583 997.458862,970.703247 
z"/>
<path fill="#F2F4EF" opacity="1.000000" stroke="none" 
	d="
M372.104004,673.039917 
	C372.671600,672.551392 373.239197,672.062866 374.209229,671.191345 
	C375.709106,669.526123 376.806580,668.243896 377.904053,666.961670 
	C378.184326,666.762573 378.464630,666.563416 379.117188,666.008057 
	C379.712677,665.121521 379.935944,664.591309 380.159241,664.061035 
	C385.395905,658.660706 390.632538,653.260315 396.394409,647.344910 
	C397.085266,645.031189 397.394623,643.232544 397.395752,641.433838 
	C397.447052,560.613403 397.477142,479.793030 397.484650,398.972626 
	C397.485138,393.986816 397.282440,389.001038 397.174316,384.015228 
	C397.265900,383.250824 397.357544,382.486450 397.441772,380.946167 
	C397.447205,377.153778 397.459991,374.137207 397.472778,371.120667 
	C414.692688,371.047241 431.912567,370.973816 450.031403,370.888885 
	C486.260071,370.895050 521.589905,370.898468 556.919434,370.975494 
	C558.560486,370.979065 560.200134,371.641144 561.579102,371.990601 
	C561.147278,372.278992 560.976807,372.573334 560.518555,373.030457 
	C542.100769,391.321655 523.934631,409.414307 505.856354,427.594238 
	C497.185883,436.313416 488.681366,445.197693 479.830627,454.337097 
	C479.489075,455.826630 479.356873,456.986267 479.356964,458.145935 
	C479.359955,499.277710 479.352448,540.409485 479.397797,581.541260 
	C479.424377,605.681702 479.537811,629.821960 479.399780,654.254761 
	C452.804260,681.742004 426.421143,708.936890 399.242920,736.951355 
	C401.867065,736.951355 403.297546,736.951355 404.727997,736.951355 
	C441.054504,736.950317 477.381683,737.070251 513.707031,736.864807 
	C523.009399,736.812256 532.411804,736.421692 541.588501,735.014465 
	C618.861694,723.164856 675.649414,682.972351 708.424622,611.451111 
	C728.742859,567.112976 733.273315,520.180847 725.611572,472.162018 
	C718.877808,429.959442 702.206482,392.169891 673.806335,359.903870 
	C664.036072,348.803619 653.347900,338.669464 640.692627,329.420898 
	C640.692627,331.641541 640.666565,333.063232 640.696411,334.483765 
	C641.904297,391.956543 643.299866,449.426361 644.188049,506.904083 
	C644.385315,519.668823 643.856384,532.631165 641.839661,545.210449 
	C634.386047,591.703064 608.371948,624.341919 565.794800,644.011658 
	C564.967529,644.393738 564.029236,644.535583 562.778442,644.893982 
	C562.778442,637.682190 562.779175,630.860474 562.778320,624.038696 
	C562.767334,540.388550 562.756104,456.738403 562.829224,372.773376 
	C562.815674,372.264404 562.717896,372.070343 562.652832,371.509460 
	C562.685608,343.714447 562.685608,316.286285 562.685608,288.510864 
	C560.648926,288.416718 559.033325,288.276947 557.417664,288.276855 
	C507.124023,288.273621 456.830353,288.263184 406.536713,288.299957 
	C375.731964,288.322510 344.927277,288.420593 313.817932,288.420807 
	C313.380951,288.916504 313.248627,289.476135 313.116333,290.035797 
	C313.083832,321.374481 313.051331,352.713135 312.989258,384.775970 
	C313.014343,385.672974 313.068970,385.845795 313.123596,386.018585 
	C313.088013,389.371796 313.052460,392.725006 312.969940,396.904358 
	C312.989380,398.491333 313.055817,399.252136 313.122223,400.012939 
	C313.086060,409.694061 313.049927,419.375183 312.966797,429.943634 
	C312.986176,432.558136 313.052582,434.285278 313.118958,436.012451 
	C313.082214,438.707123 313.045471,441.401764 312.959900,444.937561 
	C312.976715,446.855896 313.042389,447.933167 313.108032,449.010406 
	C313.074615,452.036224 313.041168,455.062073 312.959351,458.980835 
	C312.975006,462.585846 313.039032,465.297943 313.103058,468.010040 
	C313.070831,469.719727 313.038605,471.429413 312.959290,474.022156 
	C312.979340,479.940552 313.046509,484.975891 313.113708,490.011261 
	C313.079010,491.395599 313.044312,492.779968 312.961670,495.019287 
	C312.984894,498.587067 313.056061,501.299805 313.127228,504.012573 
	C313.092316,504.757446 313.057404,505.502350 312.973785,507.077148 
	C312.992584,514.275574 313.060059,520.644165 313.127533,527.012695 
	C313.092468,528.720703 313.057404,530.428650 312.976013,532.972351 
	C312.996490,535.210205 313.063263,536.612427 313.130066,538.014587 
	C313.095306,561.844299 312.928925,585.675110 313.141083,609.502625 
	C313.181610,614.056091 311.818359,617.379150 308.725067,620.451843 
	C302.341583,626.792908 296.042023,633.220764 289.800720,639.702209 
	C271.609894,658.593079 253.467529,677.530579 235.294327,696.438416 
	C234.181686,697.596008 232.965973,698.654541 231.277008,700.252136 
	C231.277008,535.528259 231.277008,371.515106 231.277008,206.975052 
	C233.009781,206.975052 234.623138,206.975082 236.236496,206.975052 
	C330.563263,206.973236 424.890076,206.927216 519.216797,206.982178 
	C610.943237,207.035645 684.553772,245.130630 742.573425,314.727417 
	C780.391968,360.092133 800.875916,413.108856 808.218689,471.420715 
	C816.951599,540.773438 806.134583,606.814575 771.673279,667.830750 
	C725.357117,749.837036 654.998291,798.861755 562.155029,814.940491 
	C546.642395,817.626953 530.695374,818.861511 514.941589,818.925720 
	C422.116241,819.304138 329.288635,819.137573 236.461807,819.154480 
	C235.302383,819.154724 234.142960,819.154541 231.668915,819.154541 
	C233.819824,816.811890 235.266998,815.165161 236.787918,813.589600 
	C270.697937,778.460510 304.654083,743.375854 338.510468,708.195190 
	C349.278992,697.005493 359.786224,685.564392 370.980713,674.091370 
	C371.733582,673.642944 371.918823,673.341431 372.104004,673.039917 
z"/>
<path fill="#0E5142" opacity="1.000000" stroke="none" 
	d="
M395.990051,640.000000 
	C394.991547,641.516724 394.009735,643.044800 392.989014,644.546448 
	C392.226288,645.668396 391.519684,647.527222 390.594604,647.654907 
	C389.550415,647.798950 387.819977,646.630371 387.235870,645.566956 
	C386.414673,644.072021 386.019958,642.139648 386.061523,640.409119 
	C386.243256,632.839172 387.410187,625.206665 386.743256,617.728516 
	C386.157959,611.165527 383.429413,604.876221 377.251740,600.091736 
	C381.236176,589.634277 378.444000,580.528809 368.405701,573.633179 
	C370.111298,572.256958 371.231781,571.352844 372.567474,570.275024 
	C371.550323,568.170288 366.973145,564.383545 374.537750,565.421570 
	C375.498108,565.553345 377.200073,562.987549 377.947968,561.386414 
	C379.411987,558.252014 380.445312,554.916382 381.637604,551.715881 
	C379.772552,549.766418 377.775696,546.565552 374.892242,545.034729 
	C372.773224,543.909790 369.065430,544.106506 366.811310,545.221558 
	C360.178162,548.502930 352.122192,549.499451 347.762390,556.737183 
	C345.388733,560.677612 345.420990,567.140991 347.943542,571.137329 
	C350.811249,575.680542 353.181366,580.535950 355.983765,585.123718 
	C356.721283,586.331055 358.156036,587.663208 359.445312,587.875183 
	C362.735046,588.416077 363.896606,590.129028 364.046936,593.274841 
	C364.229004,597.086182 364.809845,600.487427 368.867249,602.837219 
	C372.530945,604.958984 371.084808,610.329285 366.527069,611.557373 
	C361.687958,612.861328 356.918488,614.248535 351.567261,612.294617 
	C347.163513,610.686646 342.101440,610.984497 337.422546,610.002258 
	C330.984100,608.650818 329.782501,607.238281 330.091797,600.901245 
	C330.281738,597.008911 330.955444,593.027100 332.142944,589.319580 
	C334.771545,581.112854 334.592651,573.476562 331.415497,565.197021 
	C328.881561,558.593628 324.778931,551.767273 328.277710,543.721375 
	C329.390656,541.161987 327.278046,537.379578 327.532227,534.228638 
	C328.019653,528.185364 329.009277,522.170288 330.033356,516.185059 
	C332.083466,504.203583 334.297089,492.250061 336.379364,480.641083 
	C345.031281,479.790253 348.861664,484.365784 350.783508,490.269379 
	C353.070343,497.294128 355.005524,504.544128 353.861755,512.181946 
	C353.658691,513.538025 354.167297,515.490479 355.093140,516.440735 
	C359.013367,520.464417 363.215179,524.213745 368.253754,528.945862 
	C368.919067,524.558289 369.946564,521.390808 369.743225,518.304382 
	C369.411774,513.273376 370.217621,509.615479 374.653015,506.124329 
	C377.754486,503.683044 378.867004,498.770386 381.033539,495.058228 
	C381.884796,493.599701 383.187225,492.404480 384.852539,491.279724 
	C386.108765,490.272858 386.722473,489.024384 387.504822,487.892487 
	C388.332611,486.694733 389.320953,485.607880 390.239136,484.472595 
	C391.152283,485.336182 392.570312,486.046539 392.887360,487.091064 
	C394.001495,490.761749 394.565277,494.469360 392.087341,498.021149 
	C391.443604,498.943787 391.356354,500.517609 391.542725,501.709595 
	C392.243622,506.192078 393.069611,510.661255 394.055969,515.089233 
	C394.363037,516.467896 395.325623,517.700623 395.990143,519.333374 
	C395.991119,520.111084 395.990051,520.555420 395.649231,521.062134 
	C394.952148,521.436768 394.291199,521.740356 394.281799,522.062866 
	C394.024384,530.901001 393.724152,539.740356 393.666046,548.581055 
	C393.619873,555.600342 393.797607,562.625366 394.095917,569.638489 
	C394.144592,570.783813 395.332520,571.880737 395.995789,573.468628 
	C395.995148,595.958191 395.992584,617.979126 395.990051,640.000000 
z"/>
<path fill="#0E5142" opacity="1.000000" stroke="none" 
	d="
M295.388489,731.357605 
	C287.999603,734.647949 280.951630,737.802124 273.820984,740.756775 
	C272.937134,741.122986 271.618652,740.294128 270.493378,740.255310 
	C268.348480,740.181274 265.999817,739.724792 264.087128,740.409180 
	C258.737091,742.323486 253.011047,738.647461 252.775375,732.905579 
	C252.724228,731.659424 252.104416,730.368591 251.504440,729.225403 
	C249.369476,725.157532 250.785187,721.284729 255.266357,721.681885 
	C260.249390,722.123474 262.301331,719.628113 264.445587,715.944458 
	C265.738129,717.048523 266.701111,717.871033 267.702545,718.726440 
	C268.196808,718.560913 268.814636,718.545776 269.090149,718.230957 
	C271.039032,716.004211 273.007507,716.572021 275.710022,717.070374 
	C279.602997,717.788269 283.790924,716.906616 287.798492,716.710205 
	C285.458313,713.891113 282.690796,711.993896 282.283966,709.681335 
	C281.836700,707.139221 283.562103,704.214783 284.412964,701.201782 
	C281.083679,698.154419 280.725250,693.042969 283.900604,688.558594 
	C284.378723,687.883301 284.870636,687.200500 285.226837,686.459045 
	C288.284882,680.093506 288.239929,680.602478 294.917694,682.762146 
	C300.367279,684.524719 306.323944,684.719421 312.556671,685.687012 
	C312.519501,686.083496 312.015503,687.717773 312.348846,689.158325 
	C312.590118,690.200867 313.807434,691.362488 314.852783,691.737976 
	C315.431274,691.945740 317.399475,690.378601 317.300751,690.065002 
	C315.680603,684.917542 321.352814,683.956787 322.499451,680.224304 
	C324.332275,681.005798 325.903351,681.953979 327.599274,682.313965 
	C329.052307,682.622498 331.929352,682.456970 331.975769,682.158569 
	C332.307556,680.026611 332.609772,677.568909 331.786407,675.720215 
	C331.402130,674.857422 327.775604,674.269897 326.865540,675.036926 
	C324.471680,677.054504 322.848877,676.405945 320.229034,675.516846 
	C317.299652,674.522705 313.801361,675.334900 310.580719,675.036316 
	C306.467285,674.654968 304.518219,672.898560 305.208313,668.078186 
	C305.601532,665.331482 304.278839,661.849243 302.647400,659.426392 
	C300.600647,656.386780 300.980835,654.768494 303.363251,652.203003 
	C307.356903,647.902588 310.133118,642.261169 314.624298,638.701355 
	C318.066162,635.973206 323.308197,634.716370 327.850494,634.435242 
	C331.339813,634.219299 334.915009,636.894897 338.583008,637.637695 
	C342.220642,638.374512 346.057678,638.079285 349.738922,638.665588 
	C352.056671,639.034729 354.264648,640.152893 356.481750,641.035828 
	C356.853363,641.183777 356.954559,641.909180 357.292236,642.260559 
	C359.153381,644.197144 362.883728,646.455933 362.594391,647.949646 
	C361.669678,652.722900 359.331543,657.240479 357.339783,661.769104 
	C357.047668,662.433228 355.711029,662.785461 354.791901,662.999207 
	C351.840454,663.685547 351.653198,665.559021 352.512665,667.934570 
	C352.794952,668.714783 353.344086,669.427185 353.492645,670.222595 
	C354.843170,677.453613 352.155518,683.073486 346.971832,688.093872 
	C340.092194,694.756775 332.761292,700.600891 323.836395,704.305969 
	C323.137939,704.595886 322.827454,706.056213 322.528076,707.031372 
	C321.082275,711.739929 319.737396,716.335938 314.950165,719.114258 
	C308.407959,722.911011 302.108002,727.125244 295.388489,731.357605 
M325.154144,669.048340 
	C327.007019,672.942871 329.066925,668.402222 331.008698,669.193359 
	C335.326721,670.952332 335.716003,668.080383 336.006744,664.985107 
	C336.346954,661.363342 334.884064,659.811096 331.144562,659.908752 
	C329.307190,659.956726 327.445374,659.067627 324.954315,658.441711 
	C324.954315,661.893127 324.954315,665.103882 325.154144,669.048340 
M323.413940,696.002502 
	C322.038361,696.483704 320.662750,696.964844 319.287140,697.445984 
	C319.483002,698.027222 319.678833,698.608459 319.874664,699.189636 
	C322.103516,698.740601 324.332336,698.291565 326.561188,697.842529 
	C326.505127,697.386597 326.449097,696.930664 326.393066,696.474670 
	C325.655151,696.318604 324.917236,696.162537 323.413940,696.002502 
M309.090790,695.641907 
	C309.222992,698.406799 309.222992,698.406799 312.904663,696.598450 
	C311.635071,696.099792 310.664246,695.718506 309.090790,695.641907 
z"/>
<path fill="#0D4134" opacity="1.000000" stroke="none" 
	d="
M314.122559,288.484741 
	C344.927277,288.420593 375.731964,288.322510 406.536713,288.299957 
	C456.830353,288.263184 507.124023,288.273621 557.417664,288.276855 
	C559.033325,288.276947 560.648926,288.416718 562.685608,288.510864 
	C562.685608,316.286285 562.685608,343.714447 562.439087,371.417145 
	C562.192505,371.691681 561.840393,371.996552 561.840393,371.996552 
	C560.200134,371.641144 558.560486,370.979065 556.919434,370.975494 
	C521.589905,370.898468 486.260071,370.895050 450.468506,370.793762 
	C450.006927,370.330933 450.007202,369.951752 450.003723,369.286255 
	C450.000000,369.000000 450.003662,369.002441 450.003662,369.002441 
	C450.752136,369.002167 451.500610,369.001892 453.061157,369.001648 
	C455.915863,369.000702 457.958557,368.999725 460.001221,368.998779 
	C460.445129,368.999847 460.889038,369.000885 461.999603,369.002045 
	C463.111237,369.001404 463.556244,369.000702 464.001221,369.000000 
	C466.042206,369.000427 468.083221,369.000854 471.005829,369.001587 
	C474.258301,369.000458 476.629150,368.998993 479.467957,368.999451 
	C485.623932,369.000122 491.311951,368.998840 497.000000,368.997559 
	C497.750000,368.999176 498.500000,369.000793 500.091125,369.002563 
	C505.621490,369.001831 510.310760,369.000916 515.000000,369.000000 
	C517.370544,369.001129 519.741150,369.002258 523.016479,369.003540 
	C527.614197,369.003723 531.307068,369.003693 535.000000,369.003662 
	C542.325317,369.001617 549.652710,368.898987 556.975037,369.046082 
	C559.983521,369.106506 561.060852,368.077087 561.049072,365.018555 
	C560.958435,341.378021 560.962402,317.736908 561.039246,294.096313 
	C561.048706,291.164978 560.212341,289.682892 557.077087,289.985168 
	C555.592712,290.128235 554.082703,290.003937 552.584351,290.003876 
	C473.337555,290.000641 394.090759,289.997742 314.402161,289.735016 
	C314.014435,289.145050 314.068481,288.814911 314.122559,288.484741 
z"/>
<path fill="#134337" opacity="1.000000" stroke="none" 
	d="
M395.989014,520.999817 
	C395.990051,520.555420 395.991119,520.111084 395.994080,518.864746 
	C395.992523,499.041718 395.989044,480.020538 395.985596,460.999390 
	C395.657074,453.248138 395.025848,445.495209 395.069916,437.746063 
	C395.138580,425.673309 395.654358,413.602844 396.003662,401.532074 
	C396.168793,395.825256 396.387268,390.119965 396.877960,384.214600 
	C397.282440,389.001038 397.485138,393.986816 397.484650,398.972626 
	C397.477142,479.793030 397.447052,560.613403 397.395752,641.433838 
	C397.394623,643.232544 397.085266,645.031189 396.503113,647.028076 
	C396.056519,645.117859 396.026459,643.009277 395.993225,640.450378 
	C395.992584,617.979126 395.995148,595.958191 395.998169,573.000000 
	C395.995453,555.041748 395.992249,538.020752 395.989014,520.999817 
z"/>
<path fill="#0E5041" opacity="1.000000" stroke="none" 
	d="
M395.611389,460.948303 
	C395.989044,480.020538 395.992523,499.041718 395.992065,518.531494 
	C395.325623,517.700623 394.363037,516.467896 394.055969,515.089233 
	C393.069611,510.661255 392.243622,506.192078 391.542725,501.709595 
	C391.356354,500.517609 391.443604,498.943787 392.087341,498.021149 
	C394.565277,494.469360 394.001495,490.761749 392.887360,487.091064 
	C392.570312,486.046539 391.152283,485.336182 390.239136,484.472595 
	C389.320953,485.607880 388.332611,486.694733 387.504822,487.892487 
	C386.722473,489.024384 386.108765,490.272858 385.210449,491.235046 
	C385.000000,489.285645 385.000000,487.571289 385.217133,485.251801 
	C384.956177,484.097778 384.478088,483.548889 384.000000,483.000000 
	C384.624695,481.209686 384.920532,479.197754 385.945374,477.677063 
	C387.837982,474.868805 390.158051,472.348572 392.158691,469.882568 
	C391.607391,469.028381 391.495941,468.630096 391.247894,468.506989 
	C389.221130,467.501068 386.065735,466.990753 385.444153,465.447449 
	C384.858673,463.993683 386.510986,460.192413 387.941345,459.716736 
	C390.013275,459.027679 392.771667,460.402649 395.611389,460.948303 
z"/>
<path fill="#0D5142" opacity="1.000000" stroke="none" 
	d="
M336.283630,446.649048 
	C338.324219,444.061218 339.964813,441.499878 342.227875,439.738159 
	C344.293488,438.130188 346.360474,438.933319 346.934265,441.822815 
	C347.239166,443.358215 347.405731,444.921082 347.703766,446.938782 
	C349.803925,446.167511 351.256195,445.634186 353.088684,444.961212 
	C354.342407,448.420135 354.651428,450.818604 350.277618,452.133789 
	C347.413574,452.994934 344.959686,455.133087 342.173492,456.362488 
	C338.864807,457.822418 336.748871,457.144318 336.931885,452.856720 
	C337.014221,450.927063 336.434357,448.969147 336.283630,446.649048 
z"/>
<path fill="#0E5041" opacity="1.000000" stroke="none" 
	d="
M496.899109,368.606567 
	C491.311951,368.998840 485.623932,369.000122 479.357513,368.742493 
	C478.519409,367.989105 478.259705,367.494537 478.000000,367.000000 
	C482.778717,367.000031 487.560455,366.905243 492.334412,367.055908 
	C493.833069,367.103180 495.310883,367.810394 496.899109,368.606567 
z"/>
<path fill="#0E5041" opacity="1.000000" stroke="none" 
	d="
M514.899780,368.609406 
	C510.310760,369.000916 505.621490,369.001831 500.466125,369.001343 
	C500.959778,368.336243 501.943573,367.075073 502.875244,367.112457 
	C506.858429,367.272430 510.826233,367.815491 514.899780,368.609406 
z"/>
<path fill="#0E5041" opacity="1.000000" stroke="none" 
	d="
M534.901855,368.615662 
	C531.307068,369.003693 527.614197,369.003723 523.460632,369.002472 
	C526.717651,365.432526 530.743530,366.568604 534.901855,368.615662 
z"/>
<path fill="#115042" opacity="1.000000" stroke="none" 
	d="
M427.020081,368.601166 
	C429.843445,367.810486 432.979431,367.247955 436.115387,366.685425 
	C436.170776,367.400055 436.226166,368.114685 436.281525,368.829315 
	C433.298584,368.829315 430.315613,368.829315 427.020081,368.601166 
z"/>
<path fill="#436A5F" opacity="1.000000" stroke="none" 
	d="
M313.369019,526.678528 
	C313.060059,520.644165 312.992584,514.275574 313.025696,507.447205 
	C313.287659,513.439697 313.449066,519.892029 313.369019,526.678528 
z"/>
<path fill="#134337" opacity="1.000000" stroke="none" 
	d="
M397.109070,371.304565 
	C397.459991,374.137207 397.447205,377.153778 397.303467,380.580444 
	C397.030121,377.823212 396.887756,374.655853 397.109070,371.304565 
z"/>
<path fill="#115042" opacity="1.000000" stroke="none" 
	d="
M459.934204,368.650696 
	C457.958557,368.999725 455.915863,369.000702 453.435364,368.999634 
	C454.784180,363.791229 457.389252,366.675201 459.934204,368.650696 
z"/>
<path fill="#436A5F" opacity="1.000000" stroke="none" 
	d="
M313.355225,489.678894 
	C313.046509,484.975891 312.979340,479.940552 313.011749,474.446716 
	C313.273163,479.107666 313.434967,484.227112 313.355225,489.678894 
z"/>
<path fill="#115042" opacity="1.000000" stroke="none" 
	d="
M477.576782,367.000000 
	C478.259705,367.494537 478.519409,367.989105 478.889587,368.740601 
	C476.629150,368.998993 474.258301,369.000458 471.443176,368.999939 
	C473.050446,368.331970 475.102020,367.665985 477.576782,367.000000 
z"/>
<path fill="#115042" opacity="1.000000" stroke="none" 
	d="
M444.344238,368.023743 
	C442.795044,368.511932 441.252655,368.647705 439.710236,368.783508 
	C439.715027,368.253815 439.719788,367.724091 439.724579,367.194397 
	C441.266724,367.353394 442.808868,367.512360 444.344238,368.023743 
z"/>
<path fill="#0E5142" opacity="1.000000" stroke="none" 
	d="
M349.501923,691.281128 
	C349.655731,690.084656 350.033905,689.127502 350.412079,688.170410 
	C350.933533,688.482056 351.454987,688.793762 351.976440,689.105408 
	C351.226379,689.910400 350.476349,690.715454 349.501923,691.281128 
z"/>
<path fill="#436A5F" opacity="1.000000" stroke="none" 
	d="
M313.335205,467.698914 
	C313.039032,465.297943 312.975006,462.585846 313.010803,459.431580 
	C313.262878,461.788879 313.415100,464.588318 313.335205,467.698914 
z"/>
<path fill="#25584A" opacity="1.000000" stroke="none" 
	d="
M377.533447,666.973877 
	C376.806580,668.243896 375.709106,669.526123 374.314209,670.926270 
	C375.065430,669.691528 376.114166,668.338806 377.533447,666.973877 
z"/>
<path fill="#436A5F" opacity="1.000000" stroke="none" 
	d="
M313.360474,503.701660 
	C313.056061,501.299805 312.984894,498.587067 313.013397,495.432037 
	C313.273285,497.790100 313.433472,500.590424 313.360474,503.701660 
z"/>
<path fill="#436A5F" opacity="1.000000" stroke="none" 
	d="
M313.342712,435.734070 
	C313.052582,434.285278 312.986176,432.558136 313.019409,430.408813 
	C313.268219,431.809692 313.417358,433.632690 313.342712,435.734070 
z"/>
<path fill="#115042" opacity="1.000000" stroke="none" 
	d="
M450.001221,369.001831 
	C449.146301,368.805878 448.290192,368.608063 447.434082,368.410248 
	C447.570374,368.020142 447.706665,367.630035 447.842957,367.239929 
	C448.525635,367.610535 449.208313,367.981171 449.947327,368.677124 
	C450.003662,369.002441 450.000000,369.000000 450.001221,369.001831 
z"/>
<path fill="#436A5F" opacity="1.000000" stroke="none" 
	d="
M313.348419,537.752930 
	C313.063263,536.612427 312.996490,535.210205 313.028320,533.396545 
	C313.273560,534.487122 313.420166,535.989258 313.348419,537.752930 
z"/>
<path fill="#115042" opacity="1.000000" stroke="none" 
	d="
M463.958130,368.708008 
	C463.556244,369.000702 463.111237,369.001404 462.332520,369.000793 
	C462.317261,368.492950 462.635742,367.986511 462.954224,367.480072 
	C463.274506,367.792053 463.594788,368.104004 463.958130,368.708008 
z"/>
<path fill="#0E5142" opacity="1.000000" stroke="none" 
	d="
M384.024872,483.295349 
	C384.478088,483.548889 384.956177,484.097778 385.217133,484.823334 
	C384.683258,484.530243 384.366486,484.060486 384.024872,483.295349 
z"/>
<path fill="#436A5F" opacity="1.000000" stroke="none" 
	d="
M313.320312,448.771545 
	C313.042389,447.933167 312.976715,446.855896 313.011414,445.384033 
	C313.252014,446.170502 313.392303,447.351593 313.320312,448.771545 
z"/>
<path fill="#436A5F" opacity="1.000000" stroke="none" 
	d="
M313.325897,399.804504 
	C313.055817,399.252136 312.989380,398.491333 313.022491,397.358704 
	C313.257843,397.856628 313.393707,398.726318 313.325897,399.804504 
z"/>
<path fill="#25584A" opacity="1.000000" stroke="none" 
	d="
M379.895935,664.189941 
	C379.935944,664.591309 379.712677,665.121521 379.222137,665.767944 
	C379.180817,665.362427 379.406738,664.840698 379.895935,664.189941 
z"/>
<path fill="#436A5F" opacity="1.000000" stroke="none" 
	d="
M313.817932,288.420807 
	C314.068481,288.814911 314.014435,289.145050 313.926941,289.725647 
	C313.893463,289.976044 313.503937,289.993591 313.310120,290.014709 
	C313.248627,289.476135 313.380951,288.916504 313.817932,288.420807 
z"/>
<path fill="#25584A" opacity="1.000000" stroke="none" 
	d="
M371.872253,673.113403 
	C371.918823,673.341431 371.733582,673.642944 371.274719,673.923584 
	C371.136810,673.595032 371.349945,673.356384 371.872253,673.113403 
z"/>
<path fill="#436A5F" opacity="1.000000" stroke="none" 
	d="
M313.265381,385.919250 
	C313.068970,385.845795 313.014343,385.672974 313.041565,385.240845 
	C313.218018,385.261047 313.312592,385.540497 313.265381,385.919250 
z"/>
<path fill="#0E5041" opacity="1.000000" stroke="none" 
	d="
M480.101715,454.007202 
	C488.681366,445.197693 497.185883,436.313416 505.856354,427.594238 
	C523.934631,409.414307 542.100769,391.321655 560.843750,373.047852 
	C561.886108,372.964417 562.315552,373.026337 562.744995,373.088257 
	C562.756104,456.738403 562.767334,540.388550 562.778320,624.038696 
	C562.779175,630.860474 562.778442,637.682190 562.778442,644.893982 
	C564.029236,644.535583 564.967529,644.393738 565.794800,644.011658 
	C608.371948,624.341919 634.386047,591.703064 641.839661,545.210449 
	C643.856384,532.631165 644.385315,519.668823 644.188049,506.904083 
	C643.299866,449.426361 641.904297,391.956543 640.696411,334.483765 
	C640.666565,333.063232 640.692627,331.641541 640.692627,329.420898 
	C653.347900,338.669464 664.036072,348.803619 673.806335,359.903870 
	C702.206482,392.169891 718.877808,429.959442 725.611572,472.162018 
	C733.273315,520.180847 728.742859,567.112976 708.424622,611.451111 
	C675.649414,682.972351 618.861694,723.164856 541.588501,735.014465 
	C532.411804,736.421692 523.009399,736.812256 513.707031,736.864807 
	C477.381683,737.070251 441.054504,736.950317 404.727997,736.951355 
	C403.297546,736.951355 401.867065,736.951355 399.242920,736.951355 
	C426.421143,708.936890 452.804260,681.742004 479.725281,654.081360 
	C480.506714,651.857849 480.962128,650.100281 480.963226,648.342407 
	C481.003235,585.308594 481.008087,522.274780 480.966461,459.240967 
	C480.965302,457.496185 480.402588,455.751770 480.101715,454.007202 
z"/>
<path fill="#0F3B2F" opacity="1.000000" stroke="none" 
	d="
M479.830627,454.337097 
	C480.402588,455.751770 480.965302,457.496185 480.966461,459.240967 
	C481.008087,522.274780 481.003235,585.308594 480.963226,648.342407 
	C480.962128,650.100281 480.506714,651.857849 479.937683,653.788940 
	C479.537811,629.821960 479.424377,605.681702 479.397797,581.541260 
	C479.352448,540.409485 479.359955,499.277710 479.356964,458.145935 
	C479.356873,456.986267 479.489075,455.826630 479.830627,454.337097 
z"/>
<path fill="#4F766A" opacity="1.000000" stroke="none" 
	d="
M562.829224,372.773376 
	C562.315552,373.026337 561.886108,372.964417 561.131470,372.885132 
	C560.976807,372.573334 561.147278,372.278992 561.579102,371.990601 
	C561.840393,371.996552 562.192505,371.691681 562.406250,371.783997 
	C562.717896,372.070343 562.815674,372.264404 562.829224,372.773376 
z"/>
<path fill="#0E5041" opacity="1.000000" stroke="none" 
	d="
M395.649231,521.062134 
	C395.992249,538.020752 395.995453,555.041748 395.996277,572.531372 
	C395.332520,571.880737 394.144592,570.783813 394.095917,569.638489 
	C393.797607,562.625366 393.619873,555.600342 393.666046,548.581055 
	C393.724152,539.740356 394.024384,530.901001 394.281799,522.062866 
	C394.291199,521.740356 394.952148,521.436768 395.649231,521.062134 
z"/>
<path fill="#0E5041" opacity="1.000000" stroke="none" 
	d="
M325.054230,668.681519 
	C324.954315,665.103882 324.954315,661.893127 324.954315,658.441711 
	C327.445374,659.067627 329.307190,659.956726 331.144562,659.908752 
	C334.884064,659.811096 336.346954,661.363342 336.006744,664.985107 
	C335.716003,668.080383 335.326721,670.952332 331.008698,669.193359 
	C329.066925,668.402222 327.007019,672.942871 325.054230,668.681519 
z"/>
<path fill="#0E5041" opacity="1.000000" stroke="none" 
	d="
M323.796631,696.004456 
	C324.917236,696.162537 325.655151,696.318604 326.393066,696.474670 
	C326.449097,696.930664 326.505127,697.386597 326.561188,697.842529 
	C324.332336,698.291565 322.103516,698.740601 319.874664,699.189636 
	C319.678833,698.608459 319.483002,698.027222 319.287140,697.445984 
	C320.662750,696.964844 322.038361,696.483704 323.796631,696.004456 
z"/>
<path fill="#0E5041" opacity="1.000000" stroke="none" 
	d="
M309.392090,695.489502 
	C310.664246,695.718506 311.635071,696.099792 312.904663,696.598450 
	C309.222992,698.406799 309.222992,698.406799 309.392090,695.489502 
z"/>
</svg>