<?xml version="1.0" encoding="UTF-8"?>
<svg version="1.2" baseProfile="tiny" xmlns="http://www.w3.org/2000/svg" viewBox="0 0 1031 1024" width="1031" height="1024">
<path fill="#F2F3ED" stroke="none" 
	d="M551,1025 C367.36,1025 184.21,1025 1.03,1025 C1.03,683.73 1.03,342.46 1.03,1.1 C344.56,1.1 688.12,1.1 1031.84,1.1 C1031.84,342.33 1031.84,683.67 1031.84,1025 C871.79,1025 711.65,1025 551,1025 M677.76,158.7 C631.5,136.81 582.77,124.48 531.62,124.25 C404.63,123.68 277.64,123.98 150.65,123.94 C149.54,123.94 148.44,124.15 147.43,124.26 C147.43,383.64 147.43,642.69 147.43,901.85 C148.95,901.93 150.1,902.04 151.26,902.04 C274.58,902.02 397.91,902.41 521.23,901.83 C610.21,901.41 689,871.56 757.16,814.73 C819.13,763.05 859.76,697.29 880.98,619.59 C897.81,557.94 899.29,495.67 887.01,433 C873.4,363.47 843.59,301.84 796.73,248.67 C763.39,210.85 723.8,181.08 677.76,158.7 M997.79,970.57 C1001.45,968.16 998.24,967.66 996.7,967.09 C987.38,963.68 981.06,957.38 977.83,947.97 C977.49,947 976.68,946.2 975.47,944.41 C971.85,957.17 963.86,964.7 952.01,969.02 C963.99,973.21 971.79,981.09 976,993 C980.16,982.33 986.24,974.25 997.79,970.57 z"/>
<path fill="#0E5041" stroke="none" 
	d="M678.1,158.85 C723.8,181.08 763.39,210.85 796.73,248.67 C843.59,301.84 873.4,363.47 887.01,433 C899.29,495.67 897.81,557.94 880.98,619.59 C859.76,697.29 819.13,763.05 757.16,814.73 C689,871.56 610.21,901.41 521.23,901.83 C397.91,902.41 274.58,902.02 151.26,902.04 C150.1,902.04 148.95,901.93 147.43,901.85 C147.43,642.69 147.43,383.64 147.43,124.26 C148.44,124.15 149.54,123.94 150.65,123.94 C277.64,123.98 404.63,123.68 531.62,124.25 C582.77,124.48 631.5,136.81 678.1,158.85 M477.15,367 C475.1,367.67 473.05,368.33 470.12,369 C468.08,369 466.04,369 463.92,368.42 C463.59,368.1 463.27,367.79 462.95,367.48 C462.64,367.99 462.32,368.49 461.33,369 C460.89,369 460.45,369 459.87,368.3 C457.39,366.68 454.78,363.79 452.25,369 C451.5,369 450.75,369 449.89,368.35 C449.21,367.98 448.53,367.61 447.84,367.24 C447.71,367.63 447.57,368.02 447.43,368.41 C448.29,368.61 449.15,368.81 450.01,369.57 C450.01,369.95 450.01,370.33 449.13,370.9 C431.91,370.97 414.69,371.05 396.75,371.49 C396.89,374.66 397.03,377.82 397.45,381.72 C397.36,382.49 397.27,383.25 396.58,384.41 C396.39,390.12 396.17,395.83 396,401.53 C395.65,413.6 395.14,425.67 395.07,437.75 C395.03,445.5 395.66,453.25 395.24,460.9 C392.77,460.4 390.01,459.03 387.94,459.72 C386.51,460.19 384.86,463.99 385.44,465.45 C386.07,466.99 389.22,467.5 391.25,468.51 C391.5,468.63 391.61,469.03 392.16,469.88 C390.16,472.35 387.84,474.87 385.95,477.68 C384.92,479.2 384.62,481.21 384.05,483.59 C384.37,484.06 384.68,484.53 385,485.86 C385,487.57 385,489.29 384.28,491.09 C383.19,492.4 381.88,493.6 381.03,495.06 C378.87,498.77 377.75,503.68 374.65,506.12 C370.22,509.62 369.41,513.27 369.74,518.3 C369.95,521.39 368.92,524.56 368.25,528.95 C363.22,524.21 359.01,520.46 355.09,516.44 C354.17,515.49 353.66,513.54 353.86,512.18 C355.01,504.54 353.07,497.29 350.78,490.27 C348.86,484.37 345.03,479.79 336.38,480.64 C334.3,492.25 332.08,504.2 330.03,516.19 C329.01,522.17 328.02,528.19 327.53,534.23 C327.28,537.38 329.39,541.16 328.28,543.72 C324.78,551.77 328.88,558.59 331.42,565.2 C334.59,573.48 334.77,581.11 332.14,589.32 C330.96,593.03 330.28,597.01 330.09,600.9 C329.78,607.24 330.98,608.65 337.42,610 C342.1,610.98 347.16,610.69 351.57,612.29 C356.92,614.25 361.69,612.86 366.53,611.56 C371.08,610.33 372.53,604.96 368.87,602.84 C364.81,600.49 364.23,597.09 364.05,593.27 C363.9,590.13 362.74,588.42 359.45,587.88 C358.16,587.66 356.72,586.33 355.98,585.12 C353.18,580.54 350.81,575.68 347.94,571.14 C345.42,567.14 345.39,560.68 347.76,556.74 C352.12,549.5 360.18,548.5 366.81,545.22 C369.07,544.11 372.77,543.91 374.89,545.03 C377.78,546.57 379.77,549.77 381.64,551.72 C380.45,554.92 379.41,558.25 377.95,561.39 C377.2,562.99 375.5,565.55 374.54,565.42 C366.97,564.38 371.55,568.17 372.57,570.28 C371.23,571.35 370.11,572.26 368.41,573.63 C378.44,580.53 381.24,589.63 377.25,600.09 C383.43,604.88 386.16,611.17 386.74,617.73 C387.41,625.21 386.24,632.84 386.06,640.41 C386.02,642.14 386.41,644.07 387.24,645.57 C387.82,646.63 389.55,647.8 390.59,647.65 C391.52,647.53 392.23,645.67 392.99,644.55 C394.01,643.04 394.99,641.52 396,640.9 C396.03,643.01 396.06,645.12 395.87,647.86 C390.63,653.26 385.4,658.66 379.63,664.32 C379.41,664.84 379.18,665.36 378.74,666.36 C378.46,666.56 378.18,666.76 377.16,666.99 C376.11,668.34 375.07,669.69 373.81,671.57 C373.24,672.06 372.67,672.55 371.64,673.19 C371.35,673.36 371.14,673.6 370.41,674.24 C359.79,685.56 349.28,697.01 338.51,708.2 C304.65,743.38 270.7,778.46 236.79,813.59 C235.27,815.17 233.82,816.81 231.67,819.15 C234.14,819.15 235.3,819.15 236.46,819.15 C329.29,819.14 422.12,819.3 514.94,818.93 C530.7,818.86 546.64,817.63 562.16,814.94 C655,798.86 725.36,749.84 771.67,667.83 C806.13,606.81 816.95,540.77 808.22,471.42 C800.88,413.11 780.39,360.09 742.57,314.73 C684.55,245.13 610.94,207.04 519.22,206.98 C424.89,206.93 330.56,206.97 236.24,206.98 C234.62,206.98 233.01,206.98 231.28,206.98 C231.28,371.52 231.28,535.53 231.28,700.25 C232.97,698.65 234.18,697.6 235.29,696.44 C253.47,677.53 271.61,658.59 289.8,639.7 C296.04,633.22 302.34,626.79 308.73,620.45 C311.82,617.38 313.18,614.06 313.14,609.5 C312.93,585.68 313.1,561.84 313.57,537.49 C313.42,535.99 313.27,534.49 313.02,532.14 C313.06,530.43 313.09,528.72 313.61,526.34 C313.45,519.89 313.29,513.44 313.02,506.25 C313.06,505.5 313.09,504.76 313.59,503.39 C313.43,500.59 313.27,497.79 313.01,494.16 C313.04,492.78 313.08,491.4 313.6,489.35 C313.43,484.23 313.27,479.11 313.01,473.14 C313.04,471.43 313.07,469.72 313.57,467.39 C313.42,464.59 313.26,461.79 313.01,458.09 C313.04,455.06 313.07,452.04 313.53,448.53 C313.39,447.35 313.25,446.17 313.01,444.1 C313.05,441.4 313.08,438.71 313.57,435.46 C313.42,433.63 313.27,431.81 313.01,429.06 C313.05,419.38 313.09,409.69 313.53,399.6 C313.39,398.73 313.26,397.86 313.02,396.08 C313.05,392.73 313.09,389.37 313.41,385.82 C313.31,385.54 313.22,385.26 313.02,384.05 C313.05,352.71 313.08,321.37 313.5,289.99 C313.5,289.99 313.89,289.98 314.84,289.99 C394.09,290 473.34,290 552.58,290 C554.08,290 555.59,290.13 557.08,289.99 C560.21,289.68 561.05,291.16 561.04,294.1 C560.96,317.74 560.96,341.38 561.05,365.02 C561.06,368.08 559.98,369.11 556.98,369.05 C549.65,368.9 542.33,369 534.8,368.23 C530.74,366.57 526.72,365.43 522.11,369 C519.74,369 517.37,369 514.8,368.22 C510.83,367.82 506.86,367.27 502.88,367.11 C501.94,367.08 500.96,368.34 499.25,369 C498.5,369 497.75,369 496.8,368.22 C495.31,367.81 493.83,367.1 492.33,367.06 C487.56,366.91 482.78,367 477.15,367 M295.7,731.16 C302.11,727.13 308.41,722.91 314.95,719.11 C319.74,716.34 321.08,711.74 322.53,707.03 C322.83,706.06 323.14,704.6 323.84,704.31 C332.76,700.6 340.09,694.76 346.97,688.09 C352.16,683.07 354.84,677.45 353.49,670.22 C353.34,669.43 352.79,668.71 352.51,667.93 C351.65,665.56 351.84,663.69 354.79,663 C355.71,662.79 357.05,662.43 357.34,661.77 C359.33,657.24 361.67,652.72 362.59,647.95 C362.88,646.46 359.15,644.2 357.29,642.26 C356.95,641.91 356.85,641.18 356.48,641.04 C354.26,640.15 352.06,639.03 349.74,638.67 C346.06,638.08 342.22,638.37 338.58,637.64 C334.92,636.89 331.34,634.22 327.85,634.44 C323.31,634.72 318.07,635.97 314.62,638.7 C310.13,642.26 307.36,647.9 303.36,652.2 C300.98,654.77 300.6,656.39 302.65,659.43 C304.28,661.85 305.6,665.33 305.21,668.08 C304.52,672.9 306.47,674.65 310.58,675.04 C313.8,675.33 317.3,674.52 320.23,675.52 C322.85,676.41 324.47,677.05 326.87,675.04 C327.78,674.27 331.4,674.86 331.79,675.72 C332.61,677.57 332.31,680.03 331.98,682.16 C331.93,682.46 329.05,682.62 327.6,682.31 C325.9,681.95 324.33,681.01 322.5,680.22 C321.35,683.96 315.68,684.92 317.3,690.07 C317.4,690.38 315.43,691.95 314.85,691.74 C313.81,691.36 312.59,690.2 312.35,689.16 C312.02,687.72 312.52,686.08 312.56,685.69 C306.32,684.72 300.37,684.52 294.92,682.76 C288.24,680.6 288.28,680.09 285.23,686.46 C284.87,687.2 284.38,687.88 283.9,688.56 C280.73,693.04 281.08,698.15 284.41,701.2 C283.56,704.21 281.84,707.14 282.28,709.68 C282.69,711.99 285.46,713.89 287.8,716.71 C283.79,716.91 279.6,717.79 275.71,717.07 C273.01,716.57 271.04,716 269.09,718.23 C268.81,718.55 268.2,718.56 267.7,718.73 C266.7,717.87 265.74,717.05 264.45,715.94 C262.3,719.63 260.25,722.12 255.27,721.68 C250.79,721.28 249.37,725.16 251.5,729.23 C252.1,730.37 252.72,731.66 252.78,732.91 C253.01,738.65 258.74,742.32 264.09,740.41 C266,739.72 268.35,740.18 270.49,740.26 C271.62,740.29 272.94,741.12 273.82,740.76 C280.95,737.8 288,734.65 295.7,731.16 M336.15,447.02 C336.43,448.97 337.01,450.93 336.93,452.86 C336.75,457.14 338.86,457.82 342.17,456.36 C344.96,455.13 347.41,452.99 350.28,452.13 C354.65,450.82 354.34,448.42 353.09,444.96 C351.26,445.63 349.8,446.17 347.7,446.94 C347.41,444.92 347.24,443.36 346.93,441.82 C346.36,438.93 344.29,438.13 342.23,439.74 C339.96,441.5 338.32,444.06 336.15,447.02 M427.33,368.83 C430.32,368.83 433.3,368.83 436.28,368.83 C436.23,368.11 436.17,367.4 436.12,366.69 C432.98,367.25 429.84,367.81 427.33,368.83 M444.35,367.67 C442.81,367.51 441.27,367.35 439.72,367.19 C439.72,367.72 439.72,368.25 439.71,368.78 C441.25,368.65 442.8,368.51 444.35,367.67 M349.73,691.52 C350.48,690.72 351.23,689.91 351.98,689.11 C351.45,688.79 350.93,688.48 350.41,688.17 C350.03,689.13 349.66,690.08 349.73,691.52 z"/>
<path fill="#F8F9F6" stroke="none" 
	d="M997.46,970.7 C986.24,974.25 980.16,982.33 976,993 C971.79,981.09 963.99,973.21 952.01,969.02 C963.86,964.7 971.85,957.17 975.47,944.41 C976.68,946.2 977.49,947 977.83,947.97 C981.06,957.38 987.38,963.68 996.7,967.09 C998.24,967.66 1001.45,968.16 997.46,970.7 z"/>
<path fill="#F2F4EF" stroke="none" 
	d="M372.1,673.04 C372.67,672.55 373.24,672.06 374.21,671.19 C375.71,669.53 376.81,668.24 377.9,666.96 C378.18,666.76 378.46,666.56 379.12,666.01 C379.71,665.12 379.94,664.59 380.16,664.06 C385.4,658.66 390.63,653.26 396.39,647.34 C397.09,645.03 397.39,643.23 397.4,641.43 C397.45,560.61 397.48,479.79 397.48,398.97 C397.49,393.99 397.28,389 397.17,384.02 C397.27,383.25 397.36,382.49 397.44,380.95 C397.45,377.15 397.46,374.14 397.47,371.12 C414.69,371.05 431.91,370.97 450.03,370.89 C486.26,370.9 521.59,370.9 556.92,370.98 C558.56,370.98 560.2,371.64 561.58,371.99 C561.15,372.28 560.98,372.57 560.52,373.03 C542.1,391.32 523.93,409.41 505.86,427.59 C497.19,436.31 488.68,445.2 479.83,454.34 C479.49,455.83 479.36,456.99 479.36,458.15 C479.36,499.28 479.35,540.41 479.4,581.54 C479.42,605.68 479.54,629.82 479.4,654.25 C452.8,681.74 426.42,708.94 399.24,736.95 C401.87,736.95 403.3,736.95 404.73,736.95 C441.05,736.95 477.38,737.07 513.71,736.86 C523.01,736.81 532.41,736.42 541.59,735.01 C618.86,723.16 675.65,682.97 708.42,611.45 C728.74,567.11 733.27,520.18 725.61,472.16 C718.88,429.96 702.21,392.17 673.81,359.9 C664.04,348.8 653.35,338.67 640.69,329.42 C640.69,331.64 640.67,333.06 640.7,334.48 C641.9,391.96 643.3,449.43 644.19,506.9 C644.39,519.67 643.86,532.63 641.84,545.21 C634.39,591.7 608.37,624.34 565.79,644.01 C564.97,644.39 564.03,644.54 562.78,644.89 C562.78,637.68 562.78,630.86 562.78,624.04 C562.77,540.39 562.76,456.74 562.83,372.77 C562.82,372.26 562.72,372.07 562.65,371.51 C562.69,343.71 562.69,316.29 562.69,288.51 C560.65,288.42 559.03,288.28 557.42,288.28 C507.12,288.27 456.83,288.26 406.54,288.3 C375.73,288.32 344.93,288.42 313.82,288.42 C313.38,288.92 313.25,289.48 313.12,290.04 C313.08,321.37 313.05,352.71 312.99,384.78 C313.01,385.67 313.07,385.85 313.12,386.02 C313.09,389.37 313.05,392.73 312.97,396.9 C312.99,398.49 313.06,399.25 313.12,400.01 C313.09,409.69 313.05,419.38 312.97,429.94 C312.99,432.56 313.05,434.29 313.12,436.01 C313.08,438.71 313.05,441.4 312.96,444.94 C312.98,446.86 313.04,447.93 313.11,449.01 C313.07,452.04 313.04,455.06 312.96,458.98 C312.98,462.59 313.04,465.3 313.1,468.01 C313.07,469.72 313.04,471.43 312.96,474.02 C312.98,479.94 313.05,484.98 313.11,490.01 C313.08,491.4 313.04,492.78 312.96,495.02 C312.98,498.59 313.06,501.3 313.13,504.01 C313.09,504.76 313.06,505.5 312.97,507.08 C312.99,514.28 313.06,520.64 313.13,527.01 C313.09,528.72 313.06,530.43 312.98,532.97 C313,535.21 313.06,536.61 313.13,538.01 C313.1,561.84 312.93,585.68 313.14,609.5 C313.18,614.06 311.82,617.38 308.73,620.45 C302.34,626.79 296.04,633.22 289.8,639.7 C271.61,658.59 253.47,677.53 235.29,696.44 C234.18,697.6 232.97,698.65 231.28,700.25 C231.28,535.53 231.28,371.52 231.28,206.98 C233.01,206.98 234.62,206.98 236.24,206.98 C330.56,206.97 424.89,206.93 519.22,206.98 C610.94,207.04 684.55,245.13 742.57,314.73 C780.39,360.09 800.88,413.11 808.22,471.42 C816.95,540.77 806.13,606.81 771.67,667.83 C725.36,749.84 655,798.86 562.16,814.94 C546.64,817.63 530.7,818.86 514.94,818.93 C422.12,819.3 329.29,819.14 236.46,819.15 C235.3,819.15 234.14,819.15 231.67,819.15 C233.82,816.81 235.27,815.17 236.79,813.59 C270.7,778.46 304.65,743.38 338.51,708.2 C349.28,697.01 359.79,685.56 370.98,674.09 C371.73,673.64 371.92,673.34 372.1,673.04 z"/>
<path fill="#0E5142" stroke="none" 
	d="M395.99,640 C394.99,641.52 394.01,643.04 392.99,644.55 C392.23,645.67 391.52,647.53 390.59,647.65 C389.55,647.8 387.82,646.63 387.24,645.57 C386.41,644.07 386.02,642.14 386.06,640.41 C386.24,632.84 387.41,625.21 386.74,617.73 C386.16,611.17 383.43,604.88 377.25,600.09 C381.24,589.63 378.44,580.53 368.41,573.63 C370.11,572.26 371.23,571.35 372.57,570.28 C371.55,568.17 366.97,564.38 374.54,565.42 C375.5,565.55 377.2,562.99 377.95,561.39 C379.41,558.25 380.45,554.92 381.64,551.72 C379.77,549.77 377.78,546.57 374.89,545.03 C372.77,543.91 369.07,544.11 366.81,545.22 C360.18,548.5 352.12,549.5 347.76,556.74 C345.39,560.68 345.42,567.14 347.94,571.14 C350.81,575.68 353.18,580.54 355.98,585.12 C356.72,586.33 358.16,587.66 359.45,587.88 C362.74,588.42 363.9,590.13 364.05,593.27 C364.23,597.09 364.81,600.49 368.87,602.84 C372.53,604.96 371.08,610.33 366.53,611.56 C361.69,612.86 356.92,614.25 351.57,612.29 C347.16,610.69 342.1,610.98 337.42,610 C330.98,608.65 329.78,607.24 330.09,600.9 C330.28,597.01 330.96,593.03 332.14,589.32 C334.77,581.11 334.59,573.48 331.42,565.2 C328.88,558.59 324.78,551.77 328.28,543.72 C329.39,541.16 327.28,537.38 327.53,534.23 C328.02,528.19 329.01,522.17 330.03,516.19 C332.08,504.2 334.3,492.25 336.38,480.64 C345.03,479.79 348.86,484.37 350.78,490.27 C353.07,497.29 355.01,504.54 353.86,512.18 C353.66,513.54 354.17,515.49 355.09,516.44 C359.01,520.46 363.22,524.21 368.25,528.95 C368.92,524.56 369.95,521.39 369.74,518.3 C369.41,513.27 370.22,509.62 374.65,506.12 C377.75,503.68 378.87,498.77 381.03,495.06 C381.88,493.6 383.19,492.4 384.85,491.28 C386.11,490.27 386.72,489.02 387.5,487.89 C388.33,486.69 389.32,485.61 390.24,484.47 C391.15,485.34 392.57,486.05 392.89,487.09 C394,490.76 394.57,494.47 392.09,498.02 C391.44,498.94 391.36,500.52 391.54,501.71 C392.24,506.19 393.07,510.66 394.06,515.09 C394.36,516.47 395.33,517.7 395.99,519.33 C395.99,520.11 395.99,520.56 395.65,521.06 C394.95,521.44 394.29,521.74 394.28,522.06 C394.02,530.9 393.72,539.74 393.67,548.58 C393.62,555.6 393.8,562.63 394.1,569.64 C394.14,570.78 395.33,571.88 396,573.47 C396,595.96 395.99,617.98 395.99,640 z"/>
<path fill="#0E5142" stroke="none" 
	d="M295.39,731.36 C288,734.65 280.95,737.8 273.82,740.76 C272.94,741.12 271.62,740.29 270.49,740.26 C268.35,740.18 266,739.72 264.09,740.41 C258.74,742.32 253.01,738.65 252.78,732.91 C252.72,731.66 252.1,730.37 251.5,729.23 C249.37,725.16 250.79,721.28 255.27,721.68 C260.25,722.12 262.3,719.63 264.45,715.94 C265.74,717.05 266.7,717.87 267.7,718.73 C268.2,718.56 268.81,718.55 269.09,718.23 C271.04,716 273.01,716.57 275.71,717.07 C279.6,717.79 283.79,716.91 287.8,716.71 C285.46,713.89 282.69,711.99 282.28,709.68 C281.84,707.14 283.56,704.21 284.41,701.2 C281.08,698.15 280.73,693.04 283.9,688.56 C284.38,687.88 284.87,687.2 285.23,686.46 C288.28,680.09 288.24,680.6 294.92,682.76 C300.37,684.52 306.32,684.72 312.56,685.69 C312.52,686.08 312.02,687.72 312.35,689.16 C312.59,690.2 313.81,691.36 314.85,691.74 C315.43,691.95 317.4,690.38 317.3,690.07 C315.68,684.92 321.35,683.96 322.5,680.22 C324.33,681.01 325.9,681.95 327.6,682.31 C329.05,682.62 331.93,682.46 331.98,682.16 C332.31,680.03 332.61,677.57 331.79,675.72 C331.4,674.86 327.78,674.27 326.87,675.04 C324.47,677.05 322.85,676.41 320.23,675.52 C317.3,674.52 313.8,675.33 310.58,675.04 C306.47,674.65 304.52,672.9 305.21,668.08 C305.6,665.33 304.28,661.85 302.65,659.43 C300.6,656.39 300.98,654.77 303.36,652.2 C307.36,647.9 310.13,642.26 314.62,638.7 C318.07,635.97 323.31,634.72 327.85,634.44 C331.34,634.22 334.92,636.89 338.58,637.64 C342.22,638.37 346.06,638.08 349.74,638.67 C352.06,639.03 354.26,640.15 356.48,641.04 C356.85,641.18 356.95,641.91 357.29,642.26 C359.15,644.2 362.88,646.46 362.59,647.95 C361.67,652.72 359.33,657.24 357.34,661.77 C357.05,662.43 355.71,662.79 354.79,663 C351.84,663.69 351.65,665.56 352.51,667.93 C352.79,668.71 353.34,669.43 353.49,670.22 C354.84,677.45 352.16,683.07 346.97,688.09 C340.09,694.76 332.76,700.6 323.84,704.31 C323.14,704.6 322.83,706.06 322.53,707.03 C321.08,711.74 319.74,716.34 314.95,719.11 C308.41,722.91 302.11,727.13 295.39,731.36 M325.15,669.05 C327.01,672.94 329.07,668.4 331.01,669.19 C335.33,670.95 335.72,668.08 336.01,664.99 C336.35,661.36 334.88,659.81 331.14,659.91 C329.31,659.96 327.45,659.07 324.95,658.44 C324.95,661.89 324.95,665.1 325.15,669.05 M323.41,696 C322.04,696.48 320.66,696.96 319.29,697.45 C319.48,698.03 319.68,698.61 319.87,699.19 C322.1,698.74 324.33,698.29 326.56,697.84 C326.51,697.39 326.45,696.93 326.39,696.47 C325.66,696.32 324.92,696.16 323.41,696 M309.09,695.64 C309.22,698.41 309.22,698.41 312.9,696.6 C311.64,696.1 310.66,695.72 309.09,695.64 z"/>
<path fill="#0D4134" stroke="none" 
	d="M314.12,288.48 C344.93,288.42 375.73,288.32 406.54,288.3 C456.83,288.26 507.12,288.27 557.42,288.28 C559.03,288.28 560.65,288.42 562.69,288.51 C562.69,316.29 562.69,343.71 562.44,371.42 C562.19,371.69 561.84,372 561.84,372 C560.2,371.64 558.56,370.98 556.92,370.98 C521.59,370.9 486.26,370.9 450.47,370.79 C450.01,370.33 450.01,369.95 450,369.29 C450,369 450,369 450,369 C450.75,369 451.5,369 453.06,369 C455.92,369 457.96,369 460,369 C460.45,369 460.89,369 462,369 C463.11,369 463.56,369 464,369 C466.04,369 468.08,369 471.01,369 C474.26,369 476.63,369 479.47,369 C485.62,369 491.31,369 497,369 C497.75,369 498.5,369 500.09,369 C505.62,369 510.31,369 515,369 C517.37,369 519.74,369 523.02,369 C527.61,369 531.31,369 535,369 C542.33,369 549.65,368.9 556.98,369.05 C559.98,369.11 561.06,368.08 561.05,365.02 C560.96,341.38 560.96,317.74 561.04,294.1 C561.05,291.16 560.21,289.68 557.08,289.99 C555.59,290.13 554.08,290 552.58,290 C473.34,290 394.09,290 314.4,289.74 C314.01,289.15 314.07,288.81 314.12,288.48 z"/>
<path fill="#134337" stroke="none" 
	d="M395.99,521 C395.99,520.56 395.99,520.11 395.99,518.86 C395.99,499.04 395.99,480.02 395.99,461 C395.66,453.25 395.03,445.5 395.07,437.75 C395.14,425.67 395.65,413.6 396,401.53 C396.17,395.83 396.39,390.12 396.88,384.21 C397.28,389 397.49,393.99 397.48,398.97 C397.48,479.79 397.45,560.61 397.4,641.43 C397.39,643.23 397.09,645.03 396.5,647.03 C396.06,645.12 396.03,643.01 395.99,640.45 C395.99,617.98 396,595.96 396,573 C396,555.04 395.99,538.02 395.99,521 z"/>
<path fill="#0E5041" stroke="none" 
	d="M395.61,460.95 C395.99,480.02 395.99,499.04 395.99,518.53 C395.33,517.7 394.36,516.47 394.06,515.09 C393.07,510.66 392.24,506.19 391.54,501.71 C391.36,500.52 391.44,498.94 392.09,498.02 C394.57,494.47 394,490.76 392.89,487.09 C392.57,486.05 391.15,485.34 390.24,484.47 C389.32,485.61 388.33,486.69 387.5,487.89 C386.72,489.02 386.11,490.27 385.21,491.24 C385,489.29 385,487.57 385.22,485.25 C384.96,484.1 384.48,483.55 384,483 C384.62,481.21 384.92,479.2 385.95,477.68 C387.84,474.87 390.16,472.35 392.16,469.88 C391.61,469.03 391.5,468.63 391.25,468.51 C389.22,467.5 386.07,466.99 385.44,465.45 C384.86,463.99 386.51,460.19 387.94,459.72 C390.01,459.03 392.77,460.4 395.61,460.95 z"/>
<path fill="#0D5142" stroke="none" 
	d="M336.28,446.65 C338.32,444.06 339.96,441.5 342.23,439.74 C344.29,438.13 346.36,438.93 346.93,441.82 C347.24,443.36 347.41,444.92 347.7,446.94 C349.8,446.17 351.26,445.63 353.09,444.96 C354.34,448.42 354.65,450.82 350.28,452.13 C347.41,452.99 344.96,455.13 342.17,456.36 C338.86,457.82 336.75,457.14 336.93,452.86 C337.01,450.93 336.43,448.97 336.28,446.65 z"/>
<path fill="#0E5041" stroke="none" 
	d="M496.9,368.61 C491.31,369 485.62,369 479.36,368.74 C478.52,367.99 478.26,367.49 478,367 C482.78,367 487.56,366.91 492.33,367.06 C493.83,367.1 495.31,367.81 496.9,368.61 z"/>
<path fill="#0E5041" stroke="none" 
	d="M514.9,368.61 C510.31,369 505.62,369 500.47,369 C500.96,368.34 501.94,367.08 502.88,367.11 C506.86,367.27 510.83,367.82 514.9,368.61 z"/>
<path fill="#0E5041" stroke="none" 
	d="M534.9,368.62 C531.31,369 527.61,369 523.46,369 C526.72,365.43 530.74,366.57 534.9,368.62 z"/>
<path fill="#115042" stroke="none" 
	d="M427.02,368.6 C429.84,367.81 432.98,367.25 436.12,366.69 C436.17,367.4 436.23,368.11 436.28,368.83 C433.3,368.83 430.32,368.83 427.02,368.6 z"/>
<path fill="#436A5F" stroke="none" 
	d="M313.37,526.68 C313.06,520.64 312.99,514.28 313.03,507.45 C313.29,513.44 313.45,519.89 313.37,526.68 z"/>
<path fill="#134337" stroke="none" 
	d="M397.11,371.3 C397.46,374.14 397.45,377.15 397.3,380.58 C397.03,377.82 396.89,374.66 397.11,371.3 z"/>
<path fill="#115042" stroke="none" 
	d="M459.93,368.65 C457.96,369 455.92,369 453.44,369 C454.78,363.79 457.39,366.68 459.93,368.65 z"/>
<path fill="#436A5F" stroke="none" 
	d="M313.36,489.68 C313.05,484.98 312.98,479.94 313.01,474.45 C313.27,479.11 313.43,484.23 313.36,489.68 z"/>
<path fill="#115042" stroke="none" 
	d="M477.58,367 C478.26,367.49 478.52,367.99 478.89,368.74 C476.63,369 474.26,369 471.44,369 C473.05,368.33 475.1,367.67 477.58,367 z"/>
<path fill="#115042" stroke="none" 
	d="M444.34,368.02 C442.8,368.51 441.25,368.65 439.71,368.78 C439.72,368.25 439.72,367.72 439.72,367.19 C441.27,367.35 442.81,367.51 444.34,368.02 z"/>
<path fill="#0E5142" stroke="none" 
	d="M349.5,691.28 C349.66,690.08 350.03,689.13 350.41,688.17 C350.93,688.48 351.45,688.79 351.98,689.11 C351.23,689.91 350.48,690.72 349.5,691.28 z"/>
<path fill="#436A5F" stroke="none" 
	d="M313.34,467.7 C313.04,465.3 312.98,462.59 313.01,459.43 C313.26,461.79 313.42,464.59 313.34,467.7 z"/>
<path fill="#25584A" stroke="none" 
	d="M377.53,666.97 C376.81,668.24 375.71,669.53 374.31,670.93 C375.07,669.69 376.11,668.34 377.53,666.97 z"/>
<path fill="#436A5F" stroke="none" 
	d="M313.36,503.7 C313.06,501.3 312.98,498.59 313.01,495.43 C313.27,497.79 313.43,500.59 313.36,503.7 z"/>
<path fill="#436A5F" stroke="none" 
	d="M313.34,435.73 C313.05,434.29 312.99,432.56 313.02,430.41 C313.27,431.81 313.42,433.63 313.34,435.73 z"/>
<path fill="#115042" stroke="none" 
	d="M450,369 C449.15,368.81 448.29,368.61 447.43,368.41 C447.57,368.02 447.71,367.63 447.84,367.24 C448.53,367.61 449.21,367.98 449.95,368.68 C450,369 450,369 450,369 z"/>
<path fill="#436A5F" stroke="none" 
	d="M313.35,537.75 C313.06,536.61 313,535.21 313.03,533.4 C313.27,534.49 313.42,535.99 313.35,537.75 z"/>
<path fill="#115042" stroke="none" 
	d="M463.96,368.71 C463.56,369 463.11,369 462.33,369 C462.32,368.49 462.64,367.99 462.95,367.48 C463.27,367.79 463.59,368.1 463.96,368.71 z"/>
<path fill="#0E5142" stroke="none" 
	d="M384.02,483.3 C384.48,483.55 384.96,484.1 385.22,484.82 C384.68,484.53 384.37,484.06 384.02,483.3 z"/>
<path fill="#436A5F" stroke="none" 
	d="M313.32,448.77 C313.04,447.93 312.98,446.86 313.01,445.38 C313.25,446.17 313.39,447.35 313.32,448.77 z"/>
<path fill="#436A5F" stroke="none" 
	d="M313.33,399.8 C313.06,399.25 312.99,398.49 313.02,397.36 C313.26,397.86 313.39,398.73 313.33,399.8 z"/>
<path fill="#25584A" stroke="none" 
	d="M379.9,664.19 C379.94,664.59 379.71,665.12 379.22,665.77 C379.18,665.36 379.41,664.84 379.9,664.19 z"/>
<path fill="#436A5F" stroke="none" 
	d="M313.82,288.42 C314.07,288.81 314.01,289.15 313.93,289.73 C313.89,289.98 313.5,289.99 313.31,290.01 C313.25,289.48 313.38,288.92 313.82,288.42 z"/>
<path fill="#25584A" stroke="none" 
	d="M371.87,673.11 C371.92,673.34 371.73,673.64 371.27,673.92 C371.14,673.6 371.35,673.36 371.87,673.11 z"/>
<path fill="#436A5F" stroke="none" 
	d="M313.27,385.92 C313.07,385.85 313.01,385.67 313.04,385.24 C313.22,385.26 313.31,385.54 313.27,385.92 z"/>
<path fill="#0E5041" stroke="none" 
	d="M480.1,454.01 C488.68,445.2 497.19,436.31 505.86,427.59 C523.93,409.41 542.1,391.32 560.84,373.05 C561.89,372.96 562.32,373.03 562.74,373.09 C562.76,456.74 562.77,540.39 562.78,624.04 C562.78,630.86 562.78,637.68 562.78,644.89 C564.03,644.54 564.97,644.39 565.79,644.01 C608.37,624.34 634.39,591.7 641.84,545.21 C643.86,532.63 644.39,519.67 644.19,506.9 C643.3,449.43 641.9,391.96 640.7,334.48 C640.67,333.06 640.69,331.64 640.69,329.42 C653.35,338.67 664.04,348.8 673.81,359.9 C702.21,392.17 718.88,429.96 725.61,472.16 C733.27,520.18 728.74,567.11 708.42,611.45 C675.65,682.97 618.86,723.16 541.59,735.01 C532.41,736.42 523.01,736.81 513.71,736.86 C477.38,737.07 441.05,736.95 404.73,736.95 C403.3,736.95 401.87,736.95 399.24,736.95 C426.42,708.94 452.8,681.74 479.73,654.08 C480.51,651.86 480.96,650.1 480.96,648.34 C481,585.31 481.01,522.27 480.97,459.24 C480.97,457.5 480.4,455.75 480.1,454.01 z"/>
<path fill="#0F3B2F" stroke="none" 
	d="M479.83,454.34 C480.4,455.75 480.97,457.5 480.97,459.24 C481.01,522.27 481,585.31 480.96,648.34 C480.96,650.1 480.51,651.86 479.94,653.79 C479.54,629.82 479.42,605.68 479.4,581.54 C479.35,540.41 479.36,499.28 479.36,458.15 C479.36,456.99 479.49,455.83 479.83,454.34 z"/>
<path fill="#4F766A" stroke="none" 
	d="M562.83,372.77 C562.32,373.03 561.89,372.96 561.13,372.89 C560.98,372.57 561.15,372.28 561.58,371.99 C561.84,372 562.19,371.69 562.41,371.78 C562.72,372.07 562.82,372.26 562.83,372.77 z"/>
<path fill="#0E5041" stroke="none" 
	d="M395.65,521.06 C395.99,538.02 396,555.04 396,572.53 C395.33,571.88 394.14,570.78 394.1,569.64 C393.8,562.63 393.62,555.6 393.67,548.58 C393.72,539.74 394.02,530.9 394.28,522.06 C394.29,521.74 394.95,521.44 395.65,521.06 z"/>
<path fill="#0E5041" stroke="none" 
	d="M325.05,668.68 C324.95,665.1 324.95,661.89 324.95,658.44 C327.45,659.07 329.31,659.96 331.14,659.91 C334.88,659.81 336.35,661.36 336.01,664.99 C335.72,668.08 335.33,670.95 331.01,669.19 C329.07,668.4 327.01,672.94 325.05,668.68 z"/>
<path fill="#0E5041" stroke="none" 
	d="M323.8,696 C324.92,696.16 325.66,696.32 326.39,696.47 C326.45,696.93 326.51,697.39 326.56,697.84 C324.33,698.29 322.1,698.74 319.87,699.19 C319.68,698.61 319.48,698.03 319.29,697.45 C320.66,696.96 322.04,696.48 323.8,696 z"/>
<path fill="#0E5041" stroke="none" 
	d="M309.39,695.49 C310.66,695.72 311.64,696.1 312.9,696.6 C309.22,698.41 309.22,698.41 309.39,695.49 z"/>
</svg>